<svg width="363" height="53" viewBox="0 0 363 53" fill="none" xmlns="http://www.w3.org/2000/svg">
<path d="M336.524 49.6978C333.708 48.0887 331.55 45.858 330.014 42.969C328.478 40.1166 327.747 36.7887 327.747 32.9855C327.747 29.2554 328.478 25.9642 329.978 23.0752C331.441 20.1862 333.525 17.9189 336.231 16.3098C338.901 14.7008 341.973 13.8962 345.447 13.8962C348.519 13.8962 351.371 14.5545 354.004 15.7979C356.637 17.0412 358.795 19.016 360.477 21.7221C362.122 24.4283 362.964 27.7926 363 31.8884C363 32.6198 362.781 33.2049 362.415 33.5706C362.013 33.9729 361.464 34.1557 360.733 34.1557H334.037V34.6677C334.037 37.0082 334.512 39.0926 335.5 40.9211C336.451 42.7496 337.84 44.1758 339.632 45.1997C341.387 46.2237 343.472 46.7356 345.812 46.7356C347.348 46.7356 348.775 46.5162 350.091 46.0774C351.371 45.6386 352.505 44.9803 353.492 44.1026C354.479 43.225 355.284 42.201 355.906 40.9577C355.942 40.8845 355.979 40.7748 356.052 40.7017C356.088 40.6285 356.125 40.5188 356.198 40.4457C356.491 40.0069 356.82 39.6777 357.186 39.4583C357.551 39.2389 358.027 39.1292 358.575 39.1292H360.001C360.806 39.1292 361.428 39.3486 361.793 39.7874C362.159 40.2263 362.196 40.7748 361.976 41.5062C361.245 43.5907 360.111 45.4191 358.612 47.0282C357.112 48.6373 355.32 49.8806 353.199 50.7583C351.078 51.636 348.738 52.0748 346.251 52.0748C342.558 52.0748 339.303 51.3068 336.524 49.6978ZM354.955 23.7334C353.967 22.2707 352.651 21.137 351.042 20.3325C349.433 19.5645 347.568 19.1622 345.52 19.1622C343.655 19.1622 341.899 19.5645 340.29 20.369C338.645 21.1736 337.292 22.3438 336.195 23.8431C335.098 25.3791 334.476 27.1344 334.256 29.1091H356.71C356.491 27.0247 355.906 25.2328 354.955 23.7334Z" fill="white"/>
<path d="M316.904 51.0509C316.502 50.6852 316.319 50.1001 316.319 49.3687V2.70603C316.319 1.97464 316.502 1.4261 316.904 1.02383C317.27 0.65814 317.855 0.438721 318.587 0.438721H320.049C320.781 0.438721 321.329 0.65814 321.732 1.02383C322.097 1.4261 322.317 1.97464 322.317 2.70603V49.3687C322.317 50.1001 322.097 50.6852 321.732 51.0509C321.329 51.4532 320.781 51.636 320.049 51.636H318.587C317.855 51.636 317.27 51.4532 316.904 51.0509Z" fill="white"/>
<path d="M287.488 51.3069C285.806 50.7949 284.38 50.1001 283.173 49.1859C281.966 48.2716 280.979 47.1745 280.211 45.9312L279.699 49.5515C279.516 50.9412 278.711 51.636 277.285 51.636H276.481C275.749 51.636 275.164 51.4532 274.798 51.0509C274.396 50.6852 274.213 50.1001 274.213 49.3687V2.70603C274.213 1.97464 274.396 1.4261 274.798 1.02383C275.164 0.65814 275.749 0.438721 276.481 0.438721H277.943C278.675 0.438721 279.223 0.65814 279.626 1.02383C279.991 1.4261 280.211 1.97464 280.211 2.70603V20.3325C281.088 19.0892 282.149 17.9921 283.356 17.0413C284.526 16.0905 285.952 15.3591 287.561 14.774C289.17 14.1889 290.999 13.8963 293.01 13.8963C296.448 13.8963 299.556 14.6643 302.262 16.1636C304.968 17.6995 307.089 19.8937 308.625 22.7461C310.161 25.6351 310.929 29.0361 310.929 32.9856C310.929 36.7157 310.125 40.0435 308.589 42.9325C307.053 45.858 304.895 48.0888 302.189 49.6978C299.483 51.3069 296.411 52.0748 293.01 52.0748C290.962 52.0748 289.134 51.8189 287.488 51.3069ZM298.861 45.0169C300.726 43.8467 302.189 42.2376 303.213 40.1532C304.237 38.0687 304.785 35.6917 304.785 32.9856C304.785 30.316 304.237 27.939 303.213 25.8545C302.189 23.7701 300.726 22.161 298.861 20.9908C296.996 19.8206 294.839 19.2354 292.425 19.2354C290.011 19.2354 287.854 19.8206 286.025 20.9908C284.16 22.161 282.698 23.7701 281.674 25.8179C280.65 27.8658 280.138 30.2063 280.138 32.8393C280.138 35.5454 280.65 37.959 281.674 40.08C282.698 42.2011 284.16 43.8101 286.025 44.9804C287.854 46.1506 290.011 46.7357 292.425 46.7357C294.839 46.7357 296.996 46.1872 298.861 45.0169Z" fill="white"/>
<path d="M239.328 50.7583C237.243 49.8806 235.634 48.6373 234.501 46.9916C233.33 45.3826 232.782 43.4444 232.782 41.1771C232.782 38.6904 233.33 36.6059 234.464 34.8506C235.598 33.1318 237.28 31.8153 239.547 30.9011C241.778 30.0234 244.521 29.548 247.775 29.548H258.746V26.9881C258.746 24.5014 257.905 22.5632 256.296 21.2467C254.687 19.9302 252.383 19.2354 249.457 19.2354C247.263 19.2354 245.398 19.6377 243.935 20.4056C242.436 21.1736 241.302 22.2707 240.571 23.6603L240.096 24.4283C239.803 24.8305 239.474 25.1231 239.181 25.2694C238.889 25.4522 238.487 25.5253 237.975 25.5253H236.475C235.963 25.5253 235.524 25.4522 235.159 25.2328C234.793 25.0134 234.537 24.7208 234.427 24.3185C234.318 23.9163 234.354 23.4409 234.537 22.8558C235.122 21.0273 236.11 19.4182 237.499 18.0652C238.889 16.7487 240.608 15.7247 242.692 14.9933C244.74 14.2619 247.117 13.8962 249.75 13.8962C254.504 13.8962 258.198 15.0665 260.831 17.3703C263.427 19.7108 264.743 23.0386 264.743 27.3538V43.6638C264.743 44.578 264.89 45.2363 265.219 45.602C265.548 45.9677 266.097 46.1505 266.901 46.1505H267.157C267.742 46.1505 268.181 46.37 268.547 46.7356C268.876 47.1379 269.059 47.6865 269.059 48.4178V49.3686C269.059 50.1 268.839 50.6852 268.474 51.0508C268.071 51.4531 267.523 51.636 266.791 51.636H265.767C263.464 51.636 261.781 51.1606 260.684 50.1732C259.587 49.1858 259.039 47.7962 259.039 46.0043V45.858C258.234 47.0648 257.283 48.1253 256.15 49.0395C254.979 49.9903 253.626 50.7217 252.017 51.2703C250.408 51.8188 248.58 52.0748 246.532 52.0748C243.789 52.0748 241.376 51.636 239.328 50.7583ZM253.297 45.6386C255.053 44.7609 256.406 43.5541 257.356 41.945C258.271 40.336 258.746 38.5075 258.746 36.423V34.5946H247.19C245.362 34.5946 243.862 34.8506 242.619 35.2894C241.376 35.7282 240.461 36.423 239.803 37.3373C239.145 38.2881 238.852 39.4217 238.852 40.8114C238.852 42.1279 239.181 43.225 239.84 44.1392C240.498 45.09 241.412 45.7848 242.655 46.2602C243.862 46.7356 245.289 46.9551 246.971 46.9551C249.384 46.9551 251.505 46.5162 253.297 45.6386Z" fill="white"/>
<path d="M213.656 51.051C213.254 50.6853 213.071 50.1002 213.071 49.3688V16.6025C213.071 15.8711 213.254 15.3226 213.656 14.9203C214.022 14.5546 214.607 14.3352 215.338 14.3352H216.143C217.569 14.3352 218.373 15.03 218.556 16.4197L219.068 19.9669C219.946 18.3944 221.299 17.0779 223.127 15.9808C224.956 14.8838 227.15 14.3352 229.746 14.3352H229.6C230.405 14.3352 230.99 14.5546 231.392 14.9203C231.794 15.3226 232.014 15.8711 232.014 16.6025V17.919C232.014 18.6504 231.794 19.2355 231.429 19.6012C231.026 20.0035 230.478 20.1863 229.746 20.1863H229.015C226.528 20.1863 224.554 20.808 223.091 21.9782C221.628 23.1485 220.568 24.6844 219.982 26.5494C219.361 28.4145 219.068 30.4258 219.068 32.62V49.3688C219.068 50.1002 218.849 50.6853 218.483 51.051C218.081 51.4532 217.532 51.6361 216.801 51.6361H215.338C214.607 51.6361 214.022 51.4532 213.656 51.051Z" fill="white"/>
<path d="M179.527 49.6612C176.711 48.0522 174.517 45.8214 172.981 42.9324C171.409 40.0434 170.641 36.7156 170.641 32.9855C170.641 29.2554 171.409 25.9642 172.981 23.0752C174.517 20.1862 176.711 17.9189 179.527 16.3098C182.343 14.7008 185.561 13.8962 189.145 13.8962C192.729 13.8962 195.91 14.7008 198.726 16.3098C201.542 17.9189 203.736 20.1862 205.309 23.0752C206.844 25.9642 207.649 29.2554 207.649 32.9855C207.649 36.7156 206.844 40.0434 205.309 42.9324C203.736 45.8214 201.542 48.0522 198.726 49.6612C195.91 51.2703 192.729 52.0748 189.145 52.0748C185.561 52.0748 182.343 51.2703 179.527 49.6612ZM195.581 44.9803C197.446 43.8101 198.909 42.1645 199.933 40.08C200.957 37.9955 201.505 35.6185 201.505 32.9855C201.505 30.3525 200.957 28.0121 199.933 25.9276C198.909 23.8431 197.446 22.1975 195.581 21.0273C193.679 19.8571 191.558 19.2354 189.145 19.2354C186.731 19.2354 184.574 19.8571 182.709 21.0273C180.807 22.1975 179.344 23.8431 178.32 25.9276C177.296 28.0121 176.784 30.3525 176.784 32.9855C176.784 35.6185 177.296 37.9955 178.32 40.08C179.344 42.1645 180.807 43.8101 182.709 44.9803C184.574 46.1505 186.731 46.7356 189.145 46.7356C191.558 46.7356 193.679 46.1505 195.581 44.9803Z" fill="white"/>
<path d="M140.161 49.7709C137.455 48.235 135.334 46.0043 133.871 43.1518C132.409 40.2994 131.677 36.935 131.677 33.0587C131.677 29.3286 132.409 26.0007 133.945 23.0752C135.48 20.1862 137.602 17.9189 140.381 16.3098C143.16 14.7008 146.305 13.8962 149.889 13.8962C152.558 13.8962 154.972 14.3351 157.093 15.1762C159.214 16.0538 160.969 17.2606 162.432 18.8331C163.858 20.4422 164.955 22.3438 165.687 24.538C165.906 25.3425 165.87 26.0007 165.504 26.4396C165.138 26.915 164.553 27.1344 163.749 27.1344H162.066C161.408 27.1344 160.896 26.9881 160.494 26.6956C160.092 26.403 159.763 25.891 159.47 25.2328C158.885 23.9894 158.154 22.8923 157.239 22.0147C156.325 21.137 155.265 20.4422 154.021 19.9668C152.778 19.4914 151.352 19.2354 149.816 19.2354C147.439 19.2354 145.354 19.8205 143.526 20.9907C141.697 22.1609 140.308 23.8066 139.32 25.891C138.296 28.0121 137.821 30.3891 137.821 33.0587C137.821 35.7648 138.296 38.1418 139.284 40.1897C140.271 42.2742 141.661 43.8832 143.489 45.0169C145.281 46.1871 147.402 46.7356 149.816 46.7356C151.352 46.7356 152.778 46.5162 154.021 46.0408C155.265 45.5654 156.325 44.8706 157.239 43.9564C158.117 43.0787 158.848 41.9816 159.433 40.7017C159.616 40.2994 159.836 39.9703 160.055 39.6777C160.275 39.3852 160.567 39.2023 160.896 39.0561C161.225 38.9098 161.628 38.8366 162.066 38.8366H163.749C164.553 38.8366 165.175 39.0561 165.541 39.4949C165.906 39.9337 165.979 40.5188 165.76 41.2502C165.029 43.5175 163.932 45.4557 162.469 47.0648C160.969 48.6738 159.141 49.9172 156.983 50.7949C154.826 51.6725 152.412 52.0748 149.743 52.0748C146.086 52.0748 142.868 51.3068 140.161 49.7709Z" fill="white"/>
<path d="M98.6274 50.2465C95.775 49.0031 93.4712 47.2843 91.789 45.0536C90.1068 42.8594 89.0462 40.263 88.6074 37.3374C88.4977 36.5695 88.644 35.9844 89.0097 35.5455C89.3754 35.1067 89.9605 34.8873 90.7284 34.8873H92.8129C93.4712 34.8873 94.0197 35.0701 94.3854 35.3993C94.7511 35.7284 95.0436 36.2404 95.2631 36.9718C95.7019 38.8734 96.543 40.5556 97.7864 41.9452C98.9931 43.3348 100.529 44.4319 102.358 45.1633C104.186 45.9313 106.27 46.297 108.611 46.297C110.915 46.297 112.963 45.9678 114.718 45.273C116.473 44.6148 117.863 43.5908 118.887 42.2743C119.874 40.9578 120.386 39.4219 120.386 37.5934C120.386 35.6187 119.765 34.0462 118.594 32.876C117.388 31.7057 115.852 30.8646 113.95 30.2795C112.048 29.6944 109.525 29.1459 106.344 28.5973C103.052 28.0488 100.237 27.3174 97.8229 26.3666C95.4093 25.4158 93.4346 23.9896 91.8987 22.088C90.3627 20.1864 89.5948 17.6996 89.5948 14.5547C89.5948 11.7022 90.3262 9.14237 91.789 6.94821C93.2517 4.75403 95.2996 3.07184 97.9326 1.82847C100.566 0.621681 103.637 0 107.075 0C110.439 0 113.475 0.548542 116.108 1.64563C118.741 2.74271 120.862 4.24206 122.507 6.21681C124.153 8.19156 125.25 10.4589 125.762 13.0919C125.908 13.8964 125.799 14.4815 125.433 14.9204C125.031 15.3592 124.446 15.5786 123.678 15.5786H121.557C120.935 15.5786 120.459 15.4689 120.094 15.1763C119.728 14.8838 119.435 14.4815 119.216 13.8964C119.18 13.8598 119.143 13.7867 119.143 13.7136C119.106 13.6404 119.07 13.6038 119.07 13.5307C118.521 11.9582 117.717 10.5686 116.62 9.39836C115.523 8.22814 114.133 7.35047 112.524 6.72879C110.915 6.10711 109.086 5.77798 107.075 5.77798C104.808 5.77798 102.87 6.10711 101.187 6.76535C99.5051 7.4236 98.2252 8.37441 97.3109 9.61778C96.3967 10.8611 95.9579 12.3971 95.9579 14.189C95.9579 16.1271 96.543 17.6631 97.7132 18.7601C98.8834 19.8938 100.383 20.7349 102.248 21.2834C104.113 21.832 106.636 22.3805 109.854 22.8925C113.146 23.441 115.998 24.209 118.412 25.1598C120.825 26.1106 122.836 27.5734 124.409 29.475C125.945 31.3766 126.749 33.8999 126.749 37.0083C126.749 39.9339 125.981 42.5669 124.446 44.8342C122.91 47.1015 120.752 48.8934 117.973 50.1733C115.193 51.4533 112.048 52.075 108.538 52.075C104.771 52.075 101.48 51.4898 98.6274 50.2465Z" fill="white"/>
<rect y="1" width="59.9998" height="6.5819" rx="3.29095" fill="white"/>
<rect x="60" y="52" width="59.9998" height="6.5819" rx="3.29095" transform="rotate(-180 60 52)" fill="white"/>
<rect y="9.88354" width="44.1757" height="6.5819" rx="3.29095" fill="white"/>
<rect x="60" y="43.1165" width="44.1757" height="6.5819" rx="3.29095" transform="rotate(-180 60 43.1165)" fill="white"/>
<rect y="18.7673" width="29.6702" height="6.5819" rx="3.29095" fill="white"/>
<rect x="60" y="34.2329" width="30.3296" height="6.5819" rx="3.29095" transform="rotate(-180 60 34.2329)" fill="white"/>
</svg>
